{
    "asset" : {
        "copyright" : "vm",
        "generator" : "Khronos glTF Blender I/O v1.3.48",
        "version" : "2.0"
    },
    "scene" : 0,
    "scenes" : [
        {
            "name" : "Scene",
            "nodes" : [
                0
            ]
        }
    ],
    "nodes" : [
        {
            "mesh" : 0,
            "name" : "Cube",
            "scale" : [
                1,
                0.5963119268417358,
                1
            ],
            "translation" : [
                -0.0024984017945826054,
                0.07446885108947754,
                -0.03750978410243988
            ]
        }
    ],
    "materials" : [
        {
            "doubleSided" : true,
            "emissiveFactor" : [
                0,
                0,
                0
            ],
            "name" : "scrol_whell",
            "pbrMetallicRoughness" : {
                "baseColorFactor" : [
                    0.035831645131111145,
                    0.035831645131111145,
                    0.035831645131111145,
                    1
                ],
                "metallicFactor" : 0,
                "roughnessFactor" : 0.4629921317100525
            }
        },
        {
            "doubleSided" : true,
            "emissiveFactor" : [
                0,
                0,
                0
            ],
            "name" : "upr_part",
            "pbrMetallicRoughness" : {
                "baseColorFactor" : [
                    0.8000000715255737,
                    0.04298018291592598,
                    0.0007249219925142825,
                    1
                ],
                "metallicFactor" : 0,
                "roughnessFactor" : 0.3818897604942322
            }
        },
        {
            "doubleSided" : true,
            "emissiveFactor" : [
                0,
                0,
                0
            ],
            "name" : "lower_part",
            "pbrMetallicRoughness" : {
                "baseColorFactor" : [
                    0.018547052517533302,
                    0.0316915288567543,
                    0.1699909269809723,
                    1
                ],
                "metallicFactor" : 0,
                "roughnessFactor" : 0.34251970052719116
            }
        }
    ],
    "meshes" : [
        {
            "name" : "Cube",
            "primitives" : [
                {
                    "attributes" : {
                        "POSITION" : 0,
                        "NORMAL" : 1,
                        "TEXCOORD_0" : 2
                    },
                    "indices" : 3,
                    "material" : 0
                },
                {
                    "attributes" : {
                        "POSITION" : 4,
                        "NORMAL" : 5,
                        "TEXCOORD_0" : 6
                    },
                    "indices" : 7,
                    "material" : 1
                },
                {
                    "attributes" : {
                        "POSITION" : 8,
                        "NORMAL" : 9,
                        "TEXCOORD_0" : 10
                    },
                    "indices" : 11,
                    "material" : 2
                }
            ]
        }
    ],
    "accessors" : [
        {
            "bufferView" : 0,
            "componentType" : 5126,
            "count" : 3865,
            "max" : [
                0.8940646648406982,
                0.7206038236618042,
                1.248976230621338
            ],
            "min" : [
                -0.8890678882598877,
                -0.5535405278205872,
                -1.4614022970199585
            ],
            "type" : "VEC3"
        },
        {
            "bufferView" : 1,
            "componentType" : 5126,
            "count" : 3865,
            "type" : "VEC3"
        },
        {
            "bufferView" : 2,
            "componentType" : 5126,
            "count" : 3865,
            "type" : "VEC2"
        },
        {
            "bufferView" : 3,
            "componentType" : 5123,
            "count" : 19674,
            "type" : "SCALAR"
        },
        {
            "bufferView" : 4,
            "componentType" : 5126,
            "count" : 2408,
            "max" : [
                0.9016595482826233,
                1.2145583629608154,
                1.2564905881881714
            ],
            "min" : [
                -0.8966627717018127,
                -0.08827508240938187,
                -1.4499199390411377
            ],
            "type" : "VEC3"
        },
        {
            "bufferView" : 5,
            "componentType" : 5126,
            "count" : 2408,
            "type" : "VEC3"
        },
        {
            "bufferView" : 6,
            "componentType" : 5126,
            "count" : 2408,
            "type" : "VEC2"
        },
        {
            "bufferView" : 7,
            "componentType" : 5123,
            "count" : 12348,
            "type" : "SCALAR"
        },
        {
            "bufferView" : 8,
            "componentType" : 5126,
            "count" : 152,
            "max" : [
                0.01939481310546398,
                0.6956657767295837,
                0.8643715381622314
            ],
            "min" : [
                -0.09993254393339157,
                0.31781139969825745,
                0.6036839485168457
            ],
            "type" : "VEC3"
        },
        {
            "bufferView" : 9,
            "componentType" : 5126,
            "count" : 152,
            "type" : "VEC3"
        },
        {
            "bufferView" : 10,
            "componentType" : 5126,
            "count" : 152,
            "type" : "VEC2"
        },
        {
            "bufferView" : 11,
            "componentType" : 5123,
            "count" : 468,
            "type" : "SCALAR"
        }
    ],
    "bufferViews" : [
        {
            "buffer" : 0,
            "byteLength" : 46380,
            "byteOffset" : 0
        },
        {
            "buffer" : 0,
            "byteLength" : 46380,
            "byteOffset" : 46380
        },
        {
            "buffer" : 0,
            "byteLength" : 30920,
            "byteOffset" : 92760
        },
        {
            "buffer" : 0,
            "byteLength" : 39348,
            "byteOffset" : 123680
        },
        {
            "buffer" : 0,
            "byteLength" : 28896,
            "byteOffset" : 163028
        },
        {
            "buffer" : 0,
            "byteLength" : 28896,
            "byteOffset" : 191924
        },
        {
            "buffer" : 0,
            "byteLength" : 19264,
            "byteOffset" : 220820
        },
        {
            "buffer" : 0,
            "byteLength" : 24696,
            "byteOffset" : 240084
        },
        {
            "buffer" : 0,
            "byteLength" : 1824,
            "byteOffset" : 264780
        },
        {
            "buffer" : 0,
            "byteLength" : 1824,
            "byteOffset" : 266604
        },
        {
            "buffer" : 0,
            "byteLength" : 1216,
            "byteOffset" : 268428
        },
        {
            "buffer" : 0,
            "byteLength" : 936,
            "byteOffset" : 269644
        }
    ],
    "buffers" : [
        {
            "byteLength" : 270580,
            "uri" : "data:application/octet-stream;base64,"
        }
    ]
}
